<?xml version="1.0" encoding="UTF-8"?>
<svg version="1.1" xmlns="http://www.w3.org/2000/svg" width="421" height="170">
<path d="M0 0 C2.00581961 -0.00217002 4.0116001 -0.02063494 6.01733398 -0.03930664 C7.29415039 -0.04124023 8.5709668 -0.04317383 9.88647461 -0.04516602 C11.05202881 -0.0492749 12.21758301 -0.05338379 13.41845703 -0.05761719 C17.95035483 0.26380546 22.26412032 0.85131973 25.80444336 3.84155273 C26.27108398 4.44999023 26.73772461 5.05842773 27.21850586 5.68530273 C27.94166992 6.59795898 27.94166992 6.59795898 28.67944336 7.52905273 C34.65122286 16.02581283 29.8790374 31.56375221 28.44482422 41.2109375 C28.03359245 43.98038332 27.63573633 46.7514968 27.23999023 49.52319336 C23.762772 73.58360804 23.762772 73.58360804 20.74633789 83.95922852 C19.89503696 87.00116754 19.74357136 88.38289568 20.40600586 91.37280273 C21.34677164 98.27567163 19.95835413 104.90159218 16.17553711 110.77514648 C10.49694606 117.58718884 4.24116775 122.01835098 -4.65649414 123.12280273 C-14.03800393 123.54150331 -20.13969967 121.42414825 -27.15649414 115.18530273 C-28.89075788 113.56469221 -30.52841223 111.91513976 -32.15649414 110.18530273 C-32.66438477 110.81178711 -33.17227539 111.43827148 -33.69555664 112.08374023 C-34.7280957 113.30963867 -34.7280957 113.30963867 -35.78149414 114.56030273 C-36.45438477 115.37241211 -37.12727539 116.18452148 -37.82055664 117.02124023 C-42.12125695 121.00550105 -46.86235724 121.43732747 -52.55102539 121.41577148 C-54.35603516 121.41287109 -54.35603516 121.41287109 -56.19750977 121.40991211 C-57.44209961 121.39766602 -58.68668945 121.38541992 -59.96899414 121.37280273 C-61.20198242 121.3721582 -62.4349707 121.37151367 -63.70532227 121.37084961 C-68.96433511 121.34557939 -74.13396161 121.26736967 -79.35571289 120.61108398 C-83.07554875 119.92505578 -83.07554875 119.92505578 -86.15649414 121.18530273 C-90.35587837 121.4133236 -94.55561257 121.41361753 -98.76074219 121.42553711 C-100.8195115 121.43518797 -102.87725819 121.46619758 -104.93579102 121.49780273 C-112.18289764 121.5262367 -117.52706332 121.04783277 -124.15649414 118.18530273 C-126.49758951 118.55118669 -128.43732634 119.30333728 -130.62402344 120.22241211 C-135.94451364 121.67268603 -141.18389882 121.55150768 -146.67602539 121.59155273 C-147.88916916 121.60295288 -149.10231293 121.61435303 -150.35221863 121.62609863 C-152.91495292 121.64495885 -155.47773528 121.65805078 -158.04052734 121.66577148 C-161.94528394 121.68518485 -165.84793432 121.74726323 -169.75219727 121.81030273 C-172.24762753 121.8233643 -174.74307278 121.83386466 -177.23852539 121.84155273 C-178.39818314 121.86624634 -179.55784088 121.89093994 -180.75263977 121.91638184 C-188.39952384 121.87469858 -193.47906278 120.46221161 -199.15649414 115.18530273 C-200.19114385 113.87867434 -201.20180146 112.55144316 -202.15649414 111.18530273 C-202.66438477 111.66741211 -203.17227539 112.14952148 -203.69555664 112.64624023 C-204.38391602 113.27788086 -205.07227539 113.90952148 -205.78149414 114.56030273 C-206.45438477 115.18678711 -207.12727539 115.81327148 -207.82055664 116.45874023 C-214.1649389 121.14806625 -221.50353219 120.5518916 -229.03149414 120.56030273 C-230.1774707 120.58479492 -231.32344727 120.60928711 -232.50415039 120.63452148 C-239.698854 120.65935936 -243.90384844 119.62848263 -250.15649414 116.18530273 C-252.63926739 116.21035412 -252.63926739 116.21035412 -254.78149414 117.24780273 C-270.51664425 123.00043826 -284.40117018 123.73488795 -300.15649414 118.18530273 C-303.7454327 116.48630999 -306.93311389 114.49640555 -310.15649414 112.18530273 C-310.95958008 111.62584961 -311.76266602 111.06639648 -312.59008789 110.48999023 C-318.74925027 105.9793393 -322.97939542 101.84050403 -325.34399414 94.49780273 C-325.94499087 85.34144084 -318.1763284 76.44915955 -312.89086914 69.65795898 C-311.11120545 67.12073575 -309.91444053 65.1941202 -309.15649414 62.18530273 C-309.82638583 59.22736555 -309.82638583 59.22736555 -311.09399414 56.18530273 C-314.75623248 45.06109753 -312.78215686 35.17721742 -308.00024414 24.70092773 C-302.09743917 13.44557927 -292.37940593 6.77864499 -280.75024414 2.24780273 C-268.04794825 -1.16475437 -254.49497242 1.22061648 -242.78149414 6.62280273 C-240.43150836 7.70685702 -240.43150836 7.70685702 -238.15649414 8.18530273 C-234.67640074 6.67188277 -234.67640074 6.67188277 -232.15649414 4.18530273 C-227.20301491 2.53414299 -222.05742309 2.96020968 -216.86962891 2.94506836 C-214.86161387 2.93538768 -212.85374032 2.90418983 -210.84594727 2.87280273 C-209.57041992 2.86764648 -208.29489258 2.86249023 -206.98071289 2.85717773 C-205.23407349 2.84315918 -205.23407349 2.84315918 -203.45214844 2.82885742 C-199.74852571 3.22942703 -197.38053191 4.36586704 -194.15649414 6.18530273 C-192.49739411 6.87058318 -190.8331685 7.54422136 -189.15649414 8.18530273 C-188.24899414 7.38092773 -187.34149414 6.57655273 -186.40649414 5.74780273 C-182.07603566 1.90944181 -177.93930817 2.05546521 -172.28344727 2.02416992 C-171.25809875 2.01672256 -171.25809875 2.01672256 -170.21203613 2.00912476 C-167.95392843 1.99454183 -165.69589118 1.98770468 -163.43774414 1.98217773 C-162.27419655 1.97793667 -162.27419655 1.97793667 -161.08714294 1.97360992 C-156.97549093 1.95862632 -152.86387388 1.94939394 -148.75219727 1.94506836 C-144.53389677 1.93961052 -140.31592345 1.91563757 -136.09772491 1.88709641 C-132.83059813 1.86832741 -129.56354756 1.86325673 -126.29637146 1.86173248 C-124.74326302 1.85873327 -123.19015502 1.85079887 -121.63710022 1.8375473 C-111.13876216 1.75442414 -101.53323045 2.51866755 -91.71899414 6.62280273 C-90.87336914 6.80842773 -90.02774414 6.99405273 -89.15649414 7.18530273 C-86.42162637 5.44742709 -86.42162637 5.44742709 -84.15649414 3.18530273 C-80.80504571 2.06815326 -78.22987729 2.03343332 -74.69726562 1.99584961 C-74.0465509 1.9875563 -73.39583618 1.979263 -72.72540283 1.97071838 C-71.31439562 1.95334009 -69.90335991 1.93816722 -68.49230766 1.92494202 C-66.26091398 1.90389547 -64.02966381 1.87687581 -61.7983551 1.8482666 C-56.25818017 1.77847121 -50.71790299 1.71899582 -45.1776123 1.65924072 C-40.49355509 1.60833995 -35.80957592 1.55353025 -31.12562752 1.49342346 C-28.92422415 1.46681426 -26.7228136 1.44602318 -24.52134705 1.42541504 C-23.17633717 1.40881561 -21.83133061 1.39194409 -20.48632812 1.37475586 C-19.30957016 1.36222778 -18.13281219 1.34969971 -16.9203949 1.33679199 C-11.30091875 1.02878879 -5.90210453 -0.00071549 0 0 Z " fill="#080808" transform="translate(359.156494140625,27.814697265625)"/>
<path d="M0 0 C0.74461487 -0.00807175 1.48922974 -0.01614349 2.25640869 -0.02445984 C3.84360411 -0.03833161 5.43082976 -0.04903984 7.01806641 -0.05688477 C9.40198596 -0.07385472 11.7844275 -0.11767552 14.16796875 -0.16210938 C26.03652741 -0.28360553 37.69224473 0.71521736 47.18359375 8.66796875 C52.31188549 13.96764299 53.03078493 20.93067829 52.921875 28.0234375 C52.28757816 34.44569301 50.45905532 40.73266305 45.703125 45.23828125 C40.98671057 48.91060394 36.85701955 51.92269691 30.703125 52.23828125 C30.373125 54.21828125 30.043125 56.19828125 29.703125 58.23828125 C30.31671875 58.32207031 30.9303125 58.40585938 31.5625 58.4921875 C33.703125 59.23828125 33.703125 59.23828125 34.96875 61.015625 C35.45601563 62.08490234 35.45601563 62.08490234 35.953125 63.17578125 C36.28828125 63.88605469 36.6234375 64.59632812 36.96875 65.328125 C37.703125 67.23828125 37.703125 67.23828125 37.703125 69.23828125 C38.363125 69.23828125 39.023125 69.23828125 39.703125 69.23828125 C39.97125 69.96015625 40.239375 70.68203125 40.515625 71.42578125 C42.28896642 75.6258004 44.10928359 78.6582501 47.390625 81.86328125 C49.703125 84.23828125 49.703125 84.23828125 49.703125 87.23828125 C41.123125 87.23828125 32.543125 87.23828125 23.703125 87.23828125 C21.41375 82.87609375 21.41375 82.87609375 19.078125 78.42578125 C15.34800277 71.3285923 11.5822524 64.25540195 7.703125 57.23828125 C4.74162134 66.77390297 3.25765263 76.39293962 1.703125 86.23828125 C-5.556875 86.23828125 -12.816875 86.23828125 -20.296875 86.23828125 C-20.296875 74.99682164 -19.2452899 64.44515043 -16.921875 53.48828125 C-15.3747869 46.13570597 -14.32879482 38.74167246 -13.296875 31.30078125 C-8.95547482 0.0919259 -8.95547482 0.0919259 0 0 Z " fill="#F7F7F7" transform="translate(221.296875,39.76171875)"/>
<path d="M0 0 C9.9 0 19.8 0 30 0 C30 0.99 30 1.98 30 3 C28.62867446 3.94135295 27.24854381 4.87162316 25.83444214 5.74740601 C22.16748709 8.25127668 19.1049516 11.48377329 15.94140625 14.58203125 C15.19285873 15.31443527 14.44431122 16.04683929 13.67308044 16.80143738 C12.10113267 18.34583686 10.53217802 19.89328811 8.96606445 21.44360352 C7.35999094 23.02651172 5.74499098 24.60041223 4.12133789 26.1652832 C1.77077816 28.43081713 -0.55242792 30.72141954 -2.87109375 33.01953125 C-3.6011412 33.71456253 -4.33118866 34.40959381 -5.08335876 35.12568665 C-9.23225982 39.22044465 -9.23225982 39.22044465 -10.06274414 44.8659668 C-8.88958409 48.32561658 -7.70218598 49.61571825 -5 52 C-2 56.5 -2 56.5 -2 59 C-1.34 59 -0.68 59 0 59 C1.55078125 61.08984375 1.55078125 61.08984375 3.3125 63.9375 C3.93382812 64.9378125 4.55515625 65.938125 5.1953125 66.96875 C6.75948795 69.59602305 8.2419563 72.24394031 9.6875 74.9375 C11.43428394 78.17740948 13.34183207 80.43676664 16 83 C16.33 84.32 16.66 85.64 17 87 C7.76 87 -1.48 87 -11 87 C-11.66 85.35 -12.32 83.7 -13 82 C-14.02273041 80.26756485 -15.08844586 78.56004867 -16.1875 76.875 C-16.80882812 75.9159375 -17.43015625 74.956875 -18.0703125 73.96875 C-18.70710938 72.9890625 -19.34390625 72.009375 -20 71 C-21.18921418 69.12608675 -22.37675579 67.25111085 -23.5625 65.375 C-26.26522977 61.11300306 -29.06023729 56.92608037 -31.93359375 52.77734375 C-33 51 -33 51 -33 49 C-33.66 49 -34.32 49 -35 49 C-34.92265625 50.76150391 -34.92265625 50.76150391 -34.84375 52.55859375 C-34.84375 59.50446357 -36.25733021 66.25283636 -37.5 73.0625 C-37.74159169 74.41849415 -37.98248258 75.77461335 -38.22265625 77.13085938 C-38.80823339 80.42180288 -39.40317672 83.71107743 -40 87 C-47.59 87 -55.18 87 -63 87 C-62.0749678 73.12451699 -60.11054423 59.33247815 -57.4375 45.6875 C-56.42832015 40.5271577 -55.65337588 35.41208672 -55.0625 30.1875 C-54.32807856 23.92002214 -53.24191355 17.79868039 -51.9375 11.625 C-51.7629126 10.79766357 -51.5883252 9.97032715 -51.40844727 9.11791992 C-50.13957546 3.27915092 -50.13957546 3.27915092 -49 1 C-41.74 1 -34.48 1 -27 1 C-27.66 8.59 -28.32 16.18 -29 24 C-29.66 24 -30.32 24 -31 24 C-30.979375 25.0725 -30.95875 26.145 -30.9375 27.25 C-30.9857984 30.14790424 -31.13155885 32.28612141 -32 35 C-28.60550558 31.64778576 -25.327901 28.2229706 -22.125 24.6875 C-21.25230469 23.72457031 -20.37960938 22.76164062 -19.48046875 21.76953125 C-17.44024742 19.49155184 -15.43094262 17.19371298 -13.4375 14.875 C-10.09222362 11.01076667 -6.48235582 7.44554617 -2.8203125 3.8828125 C-0.93616102 2.12246661 -0.93616102 2.12246661 0 0 Z " fill="#F9F9F9" transform="translate(181,40)"/>
<path d="M0 0 C3.01194287 1.63320405 5.80219874 3.32332874 8.54296875 5.37890625 C7.96780928 9.04312442 6.9775441 11.7472124 5.10546875 14.94140625 C3.49301532 17.71867678 1.95061615 20.49159228 0.54296875 23.37890625 C-2.25108186 22.05605928 -4.6865318 20.53492033 -7.20703125 18.75390625 C-11.54968228 16.01032485 -14.37902212 15.69036264 -19.45703125 16.37890625 C-21.58573818 17.3400853 -21.58573818 17.3400853 -22.45703125 19.37890625 C-23.12383493 22.33611253 -23.12383493 22.33611253 -22.45703125 25.37890625 C-19.57831779 28.55541766 -15.8818542 30.25028589 -12.14453125 32.25390625 C1.83691006 39.77222846 1.83691006 39.77222846 4.91015625 46.015625 C7.50645233 55.711669 6.31525995 65.21729457 1.328125 73.87109375 C-1.11078755 77.29731225 -3.67941205 80.41247434 -7.45703125 82.37890625 C-8.77703125 82.37890625 -10.09703125 82.37890625 -11.45703125 82.37890625 C-11.45703125 83.03890625 -11.45703125 83.69890625 -11.45703125 84.37890625 C-14.09703125 84.70890625 -16.73703125 85.03890625 -19.45703125 85.37890625 C-19.45703125 86.03890625 -19.45703125 86.69890625 -19.45703125 87.37890625 C-22.49893988 87.43311848 -25.53987124 87.47268173 -28.58203125 87.50390625 C-29.43796875 87.52066406 -30.29390625 87.53742188 -31.17578125 87.5546875 C-36.02290418 87.59197306 -39.9041103 87.27471268 -44.45703125 85.37890625 C-44.45703125 84.71890625 -44.45703125 84.05890625 -44.45703125 83.37890625 C-45.66359375 83.19328125 -45.66359375 83.19328125 -46.89453125 83.00390625 C-47.74015625 82.79765625 -48.58578125 82.59140625 -49.45703125 82.37890625 C-49.78703125 81.71890625 -50.11703125 81.05890625 -50.45703125 80.37890625 C-52.11982452 79.37247875 -53.78686609 78.37305218 -55.45703125 77.37890625 C-57.26953125 75.94140625 -57.26953125 75.94140625 -58.45703125 74.37890625 C-58.45703125 73.05890625 -58.45703125 71.73890625 -58.45703125 70.37890625 C-57.79703125 70.37890625 -57.13703125 70.37890625 -56.45703125 70.37890625 C-56.36550781 69.66347656 -56.27398437 68.94804688 -56.1796875 68.2109375 C-55.32868911 64.87594382 -53.92374398 62.83351452 -51.89453125 60.06640625 C-51.25386719 59.18339844 -50.61320312 58.30039063 -49.953125 57.390625 C-49.45941406 56.72675781 -48.96570312 56.06289062 -48.45703125 55.37890625 C-45.61479928 56.74129843 -43.49675484 57.93123794 -41.45703125 60.37890625 C-41.45703125 61.03890625 -41.45703125 61.69890625 -41.45703125 62.37890625 C-34.8579761 65.11629209 -28.6069064 66.28143147 -21.45703125 65.37890625 C-18.33096161 63.77409841 -18.33096161 63.77409841 -17.9453125 61.43359375 C-17.85830078 60.35464844 -17.85830078 60.35464844 -17.76953125 59.25390625 C-17.66640625 57.97515625 -17.56328125 56.69640625 -17.45703125 55.37890625 C-18.01777344 55.10820313 -18.57851562 54.8375 -19.15625 54.55859375 C-22.51594111 52.83596775 -25.70210888 50.84936634 -28.92578125 48.88671875 C-31.01370288 47.64298766 -33.11669408 46.50253618 -35.26953125 45.37890625 C-38.95093581 43.06900535 -40.8081835 40.78456764 -43.45703125 37.37890625 C-44.11703125 37.04890625 -44.77703125 36.71890625 -45.45703125 36.37890625 C-48.43989506 30.24746398 -48.4371867 22.52778344 -46.88671875 15.96484375 C-45.61810699 12.39937702 -44.0883645 9.12464529 -41.45703125 6.37890625 C-40.79703125 6.37890625 -40.13703125 6.37890625 -39.45703125 6.37890625 C-39.24433594 5.7859375 -39.03164062 5.19296875 -38.8125 4.58203125 C-31.22448632 -7.75122442 -10.91960437 -5.17244418 0 0 Z " fill="#F6F6F6" transform="translate(107.45703125,41.62109375)"/>
<path d="M0 0 C1.62215675 0.00333092 1.62215675 0.00333092 3.27708435 0.00672913 C4.49827469 0.00680466 5.71946503 0.00688019 6.97766113 0.00695801 C8.32022644 0.0120654 9.66279134 0.01728141 11.00535583 0.02259827 C12.37156116 0.02446252 13.73776716 0.02588639 15.10397339 0.02688599 C18.70596654 0.03071058 22.30791959 0.04054035 25.90989685 0.05158997 C29.58298703 0.06180536 33.25608368 0.06638388 36.92918396 0.07142639 C44.14079081 0.08216268 51.35236459 0.09923838 58.56394958 0.12025452 C57.69538749 7.14510838 56.65682415 14.12585728 55.56394958 21.12025452 C48.96394958 21.12025452 42.36394958 21.12025452 35.56394958 21.12025452 C35.44922302 22.9391217 35.33449646 24.75798889 35.21629333 26.63197327 C34.6125193 34.47042456 33.40246641 42.18292434 32.12644958 49.93275452 C31.68659328 52.62618352 31.25040001 55.32017282 30.81785583 58.01478577 C30.65828903 59.00673447 30.65828903 59.00673447 30.49549866 60.01872253 C29.51383823 66.22855196 28.7445114 72.45781336 28.00901794 78.70106506 C27.64147429 81.52467935 27.12237753 84.3281148 26.56394958 87.12025452 C18.97394958 87.12025452 11.38394958 87.12025452 3.56394958 87.12025452 C3.56394958 74.75416115 3.56394958 74.75416115 4.58738708 69.44837952 C4.80290222 68.29660217 5.01841736 67.14482483 5.24046326 65.95814514 C5.47096375 64.77414124 5.70146423 63.59013733 5.93894958 62.37025452 C6.40363167 59.88633521 6.86589577 57.40196226 7.32566833 54.91712952 C7.65317078 53.15079163 7.65317078 53.15079163 7.98728943 51.34877014 C8.88186141 46.34037899 9.54290723 41.32235735 10.16160583 36.27259827 C10.80966012 31.19512441 11.6922621 26.16358925 12.56394958 21.12025452 C6.62394958 21.12025452 0.68394958 21.12025452 -5.43605042 21.12025452 C-5.43605042 10.93777276 -5.43605042 10.93777276 -4.49855042 6.12025452 C-4.32452698 5.19212952 -4.15050354 4.26400452 -3.97120667 3.30775452 C-3.23075994 0.28111095 -3.15841892 0.15591391 0 0 Z " fill="#F7F7F7" transform="translate(285.43605041503906,39.87974548339844)"/>
<path d="M0 0 C2 2 2 2 2.08203125 4.0390625 C1.42490527 10.3436625 0.38362019 16.52547489 -0.8425293 22.74047852 C-1.76607947 27.50014209 -2.45057817 32.24625413 -3 37.0625 C-3.57320684 42.06541556 -4.36164174 46.95280909 -5.4375 51.875 C-7.81392962 63.11454214 -8.78201242 74.58892488 -10 86 C-2.74 86 4.52 86 12 86 C12.33 82.7 12.66 79.4 13 76 C13.33 76 13.66 76 14 76 C14.07329796 80.39787789 14.07396066 83.70415737 13 88 C5.08 88 -2.84 88 -11 88 C-11 86.68 -11 85.36 -11 84 C-11.639375 83.896875 -12.27875 83.79375 -12.9375 83.6875 C-13.618125 83.460625 -14.29875 83.23375 -15 83 C-15.33 82.01 -15.66 81.02 -16 80 C-17.485 79.505 -17.485 79.505 -19 79 C-20.17578125 77.25 -20.17578125 77.25 -21.3125 75 C-23.55507732 70.72679626 -26.09697184 66.7985314 -28.86328125 62.84765625 C-30 61 -30 61 -30 59 C-30.66 59 -31.32 59 -32 59 C-33.2890625 57.3203125 -33.2890625 57.3203125 -34.625 55.125 C-35.07101563 54.40570313 -35.51703125 53.68640625 -35.9765625 52.9453125 C-37 51 -37 51 -37 49 C-37.99 48.67 -38.98 48.34 -40 48 C-40.92177148 45.25262593 -41.34715566 43.81812567 -41 41 C-38.84300166 37.6403011 -36.01407866 35.01328864 -33.14453125 32.2578125 C-32.33134933 31.44883514 -31.51816742 30.63985779 -30.68034363 29.80636597 C-28.9585612 28.10104055 -27.22718034 26.40535979 -25.48706055 24.71875 C-22.82071691 22.13296864 -20.18485868 19.51899906 -17.55273438 16.8984375 C-15.87670529 15.24566476 -14.19902484 13.5945646 -12.51953125 11.9453125 C-11.7277095 11.16310333 -10.93588776 10.38089417 -10.12007141 9.57498169 C-9.37637802 8.85688324 -8.63268463 8.13878479 -7.86645508 7.39892578 C-7.21502029 6.7649588 -6.56358551 6.13099182 -5.89241028 5.47781372 C-3.89695103 3.9195274 -2.47579412 3.40490143 0 3 C0 2.01 0 1.02 0 0 Z " fill="#090909" transform="translate(211,40)"/>
<path d="M0 0 C7.59 0 15.18 0 23 0 C22.67 1.65 22.34 3.3 22 5 C21.70377268 6.68886311 21.41505887 8.37905669 21.1328125 10.0703125 C20.88990479 11.5248584 20.88990479 11.5248584 20.64208984 13.00878906 C20.38613037 14.55131348 20.38613037 14.55131348 20.125 16.125 C19.94791504 17.18944336 19.77083008 18.25388672 19.58837891 19.35058594 C18.36116406 26.75371248 17.1712777 34.16204718 16.01098633 41.57592773 C15.04822061 47.72436263 14.03604341 53.86343518 13 60 C5.74 60 -1.52 60 -9 60 C-8.50895247 49.19695442 -6.89509024 38.81321197 -5.05078125 28.171875 C-3.89508067 21.48795064 -2.89940049 14.7841311 -1.95166016 8.06787109 C-1.1050677 2.2101354 -1.1050677 2.2101354 0 0 Z " fill="#F4F4F4" transform="translate(354,38)"/>
<path d="M0 0 C2.00581961 -0.00217002 4.0116001 -0.02063494 6.01733398 -0.03930664 C7.29415039 -0.04124023 8.5709668 -0.04317383 9.88647461 -0.04516602 C11.63480591 -0.05132935 11.63480591 -0.05132935 13.41845703 -0.05761719 C17.95035483 0.26380546 22.26412032 0.85131973 25.80444336 3.84155273 C26.5044043 4.75420898 26.5044043 4.75420898 27.21850586 5.68530273 C27.94166992 6.59795898 27.94166992 6.59795898 28.67944336 7.52905273 C34.65122286 16.02581283 29.8790374 31.56375221 28.44482422 41.2109375 C28.03359245 43.98038332 27.63573633 46.7514968 27.23999023 49.52319336 C22.97397547 79.05483313 22.97397547 79.05483313 19.84350586 82.18530273 C20.02526367 80.91299805 20.20702148 79.64069336 20.39428711 78.32983398 C20.57423218 77.06973511 20.57423218 77.06973511 20.7578125 75.78417969 C21.02616636 73.90636077 21.29489157 72.02859488 21.56396484 70.15087891 C22.26468143 65.25726319 22.95975354 60.36300595 23.64038086 55.46655273 C23.76888428 54.54898193 23.8973877 53.63141113 24.02978516 52.68603516 C24.27317313 50.94694044 24.51436905 49.20753692 24.75292969 47.46777344 C25.33664011 43.3156108 26.01983904 39.21657664 26.87475586 35.11108398 C29.83814506 21.37767419 29.83814506 21.37767419 26.78100586 8.24780273 C24.42626205 4.94514289 21.67064378 4.26741001 17.84350586 3.18530273 C14.7240248 2.89796501 14.7240248 2.89796501 11.49194336 2.95483398 C9.72077148 2.95773438 9.72077148 2.95773438 7.91381836 2.96069336 C6.69436523 2.97293945 5.47491211 2.98518555 4.21850586 2.99780273 C2.99131836 2.99844727 1.76413086 2.9990918 0.49975586 2.99975586 C-5.268392 2.83243071 -5.268392 2.83243071 -10.92027283 3.68353271 C-13.89927293 4.35196966 -16.72023676 4.33435932 -19.7734375 4.35888672 C-20.42923294 4.36557373 -21.08502838 4.37226074 -21.76069641 4.37915039 C-23.18041595 4.3931644 -24.60015753 4.40506996 -26.01991081 4.41509819 C-28.26901665 4.4315625 -30.51795904 4.45480165 -32.76698303 4.47999573 C-39.16000169 4.55062674 -45.55308595 4.61087998 -51.94628906 4.66210938 C-55.86080315 4.693951 -59.77512639 4.73523561 -63.68948555 4.78230476 C-65.17854945 4.79828893 -66.66765721 4.81062702 -68.15678215 4.81921196 C-70.24143677 4.83140552 -72.32564476 4.85557045 -74.41015625 4.88232422 C-75.59500107 4.89263168 -76.77984589 4.90293915 -78.00059509 4.91355896 C-81.17290465 5.18671579 -83.35099538 5.69738722 -86.15649414 7.18530273 C-86.81649414 8.17530273 -87.47649414 9.16530273 -88.15649414 10.18530273 C-91.22851383 9.74644278 -94.05910991 9.21850766 -97.00111389 8.21537781 C-107.46431675 4.79966128 -118.48584844 4.87272 -129.37915039 4.88452148 C-130.89798599 4.88062344 -132.41682052 4.87628654 -133.93565369 4.87153625 C-137.08962578 4.86414225 -140.24348571 4.86431904 -143.39746094 4.86962891 C-147.43584211 4.87547242 -151.47377189 4.8583435 -155.51207829 4.83528423 C-158.63562185 4.82056671 -161.7590554 4.81967147 -164.88262749 4.82279396 C-166.37256211 4.82228164 -167.86250302 4.81706064 -169.35240364 4.80698204 C-171.42680898 4.79464718 -173.50031616 4.80138583 -175.57470703 4.81298828 C-176.75239151 4.81235886 -177.93007599 4.81172943 -179.14344788 4.81108093 C-182.40854048 5.21660701 -183.7772106 5.97362233 -186.15649414 8.18530273 C-186.81649414 7.85530273 -187.47649414 7.52530273 -188.15649414 7.18530273 C-182.70776641 2.49334275 -179.39445794 2.06351691 -172.28344727 2.02416992 C-171.25809875 2.01672256 -171.25809875 2.01672256 -170.21203613 2.00912476 C-167.95392843 1.99454183 -165.69589118 1.98770468 -163.43774414 1.98217773 C-162.27419655 1.97793667 -162.27419655 1.97793667 -161.08714294 1.97360992 C-156.97549093 1.95862632 -152.86387388 1.94939394 -148.75219727 1.94506836 C-144.53389677 1.93961052 -140.31592345 1.91563757 -136.09772491 1.88709641 C-132.83059813 1.86832741 -129.56354756 1.86325673 -126.29637146 1.86173248 C-124.74326302 1.85873327 -123.19015502 1.85079887 -121.63710022 1.8375473 C-111.13876216 1.75442414 -101.53323045 2.51866755 -91.71899414 6.62280273 C-90.45055664 6.90124023 -90.45055664 6.90124023 -89.15649414 7.18530273 C-86.42162637 5.44742709 -86.42162637 5.44742709 -84.15649414 3.18530273 C-80.80504571 2.06815326 -78.22987729 2.03343332 -74.69726562 1.99584961 C-74.0465509 1.9875563 -73.39583618 1.979263 -72.72540283 1.97071838 C-71.31439562 1.95334009 -69.90335991 1.93816722 -68.49230766 1.92494202 C-66.26091398 1.90389547 -64.02966381 1.87687581 -61.7983551 1.8482666 C-56.25818017 1.77847121 -50.71790299 1.71899582 -45.1776123 1.65924072 C-40.49355509 1.60833995 -35.80957592 1.55353025 -31.12562752 1.49342346 C-28.92422415 1.46681426 -26.7228136 1.44602318 -24.52134705 1.42541504 C-23.17633717 1.40881561 -21.83133061 1.39194409 -20.48632812 1.37475586 C-19.30957016 1.36222778 -18.13281219 1.34969971 -16.9203949 1.33679199 C-11.30091875 1.02878879 -5.90210453 -0.00071549 0 0 Z " fill="#A9A9A9" transform="translate(359.156494140625,27.814697265625)"/>
<path d="M0 0 C3.42046703 1.25002522 5.15214645 2.86202919 7 6 C7.84114973 10.18471993 7.82874863 14.29339171 5.9453125 18.171875 C3.62173821 21.49912338 1.8915496 23.63344743 -2.13671875 24.4140625 C-6.21462441 24.75128594 -8.89832662 24.85880006 -12.21484375 22.2734375 C-15.13021367 18.80361072 -17.40685857 15.47226956 -17.8125 10.875 C-16.93562205 6.6929667 -15.97968334 4.35386273 -13.05078125 1.28515625 C-9.05135595 -1.22115027 -4.51528952 -0.77073673 0 0 Z " fill="#F2F2F2" transform="translate(358,105)"/>
<path d="M0 0 C2.24834496 -0.13526139 4.49902514 -0.23210804 6.75 -0.3125 C8.00296875 -0.37050781 9.2559375 -0.42851563 10.546875 -0.48828125 C14 0 14 0 16.41796875 2.17578125 C18.97733818 6.74472963 18.87263186 10.90964751 18 16 C15.55073558 19.63678656 13.73486084 20.70882872 9.6875 22.3125 C5.63574678 23.06791162 2.10990877 23.14420733 -2 23 C-1.03644647 7.25512528 -1.03644647 7.25512528 0 0 Z " fill="#0F0F0F" transform="translate(233,57)"/>
<path d="M0 0 C2.00581961 -0.00217002 4.0116001 -0.02063494 6.01733398 -0.03930664 C7.29415039 -0.04124023 8.5709668 -0.04317383 9.88647461 -0.04516602 C11.63480591 -0.05132935 11.63480591 -0.05132935 13.41845703 -0.05761719 C17.95035483 0.26380546 22.26412032 0.85131973 25.80444336 3.84155273 C26.5044043 4.75420898 26.5044043 4.75420898 27.21850586 5.68530273 C27.70061523 6.29374023 28.18272461 6.90217773 28.67944336 7.52905273 C34.65122286 16.02581283 29.8790374 31.56375221 28.44482422 41.2109375 C28.03359245 43.98038332 27.63573633 46.7514968 27.23999023 49.52319336 C22.97397547 79.05483313 22.97397547 79.05483313 19.84350586 82.18530273 C20.02526367 80.91299805 20.20702148 79.64069336 20.39428711 78.32983398 C20.57423218 77.06973511 20.57423218 77.06973511 20.7578125 75.78417969 C21.02616636 73.90636077 21.29489157 72.02859488 21.56396484 70.15087891 C22.26468143 65.25726319 22.95975354 60.36300595 23.64038086 55.46655273 C23.76888428 54.54898193 23.8973877 53.63141113 24.02978516 52.68603516 C24.27317313 50.94694044 24.51436905 49.20753692 24.75292969 47.46777344 C25.33664011 43.3156108 26.01983904 39.21657664 26.87475586 35.11108398 C29.83814506 21.37767419 29.83814506 21.37767419 26.78100586 8.24780273 C24.41190871 4.92501152 21.723471 4.21522615 17.84350586 3.18530273 C14.58505166 2.91092608 11.34275492 2.93225982 8.07446289 2.95825195 C7.10798325 2.9579599 6.1415036 2.95766785 5.14573669 2.95736694 C1.9641713 2.95875574 -1.21715736 2.97429589 -4.39868164 2.98999023 C-6.60970939 2.99372196 -8.8207388 2.99656818 -11.0317688 2.99856567 C-16.84159945 3.00618955 -22.65132958 3.02582741 -28.46112061 3.04797363 C-34.39341879 3.06845886 -40.32573326 3.07757312 -46.25805664 3.08764648 C-57.89091323 3.10907442 -69.52369531 3.14319539 -81.15649414 3.18530273 C-81.15649414 2.85530273 -81.15649414 2.52530273 -81.15649414 2.18530273 C-80.32155426 2.17499527 -79.48661438 2.16468781 -78.62637329 2.15406799 C-70.76850441 2.05620298 -62.91071272 1.95370435 -55.05297279 1.84596348 C-51.01296363 1.79073364 -46.97294723 1.73731355 -42.93286133 1.68798828 C-39.03599009 1.64034561 -35.13920805 1.58800285 -31.24244308 1.53236198 C-29.75367826 1.51193798 -28.26488898 1.49322497 -26.77608109 1.47622871 C-24.69527571 1.45218562 -22.61463939 1.42213115 -20.53393555 1.390625 C-18.75522568 1.36730858 -18.75522568 1.36730858 -16.94058228 1.34352112 C-11.30853966 1.02345486 -5.91373663 -0.0007169 0 0 Z " fill="#CACACA" transform="translate(359.156494140625,27.814697265625)"/>
<path d="M0 0 C3.86097306 1.28699102 3.96775835 2.53766238 6 6 C7.932668 8.39353499 9.95429514 10.70271978 12 13 C7.70621187 11.07712966 5.22846299 8.37521131 2 5 C1.23816406 5.93972656 1.23816406 5.93972656 0.4609375 6.8984375 C-0.22742188 7.71570313 -0.91578125 8.53296875 -1.625 9.375 C-2.29789062 10.18710938 -2.97078125 10.99921875 -3.6640625 11.8359375 C-7.96476281 15.82019832 -12.7058631 16.25202474 -18.39453125 16.23046875 C-20.19954102 16.22756836 -20.19954102 16.22756836 -22.04101562 16.22460938 C-23.90790039 16.20624023 -23.90790039 16.20624023 -25.8125 16.1875 C-27.04548828 16.18685547 -28.27847656 16.18621094 -29.54882812 16.18554688 C-34.80784097 16.16027666 -39.97746746 16.08206693 -45.19921875 15.42578125 C-48.91905461 14.73975305 -48.91905461 14.73975305 -52 16 C-56.23639728 16.20518163 -60.47310845 16.18580068 -64.71411133 16.18530273 C-66.79464415 16.1874813 -68.87463962 16.20562682 -70.95507812 16.22460938 C-72.2890607 16.22754526 -73.62304578 16.22952875 -74.95703125 16.23046875 C-76.16335205 16.23457764 -77.36967285 16.23868652 -78.61254883 16.24291992 C-82.0559065 15.99599085 -84.79003365 15.23592124 -88 14 C-84.16775311 12.75246304 -80.36329745 12.89059643 -76.3828125 12.9375 C-75.28064896 12.94317993 -75.28064896 12.94317993 -74.15621948 12.94897461 C-71.0238352 12.96526163 -67.89158328 12.9933547 -64.75927734 13.02050781 C-62.46712862 13.03867291 -60.17500153 13.05071803 -57.8828125 13.0625 C-56.83252365 13.07494751 -56.83252365 13.07494751 -55.76101685 13.08764648 C-52.63209958 13.10313407 -49.72265134 12.95335299 -46.63232422 12.43359375 C-44 12 -44 12 -42 13 C-37.36272293 13.2829355 -32.72468361 13.31372338 -28.07958984 13.35009766 C-26.53353793 13.36662431 -24.98756139 13.39387144 -23.44189453 13.43212891 C-21.20565417 13.48716157 -18.97120315 13.50881095 -16.734375 13.5234375 C-16.0497821 13.54610687 -15.36518921 13.56877625 -14.65985107 13.59213257 C-9.04431591 13.56765251 -6.80222161 11.82118621 -3 8 C-1.70692312 5.85376707 -1.70692312 5.85376707 -1.125 3.6875 C-0.568125 1.8621875 -0.568125 1.8621875 0 0 Z " fill="#C6C6C6" transform="translate(325,133)"/>
<path d="M0 0 C1.62215675 0.00333092 1.62215675 0.00333092 3.27708435 0.00672913 C4.49827469 0.00680466 5.71946503 0.00688019 6.97766113 0.00695801 C8.32022644 0.0120654 9.66279134 0.01728141 11.00535583 0.02259827 C12.37156116 0.02446252 13.73776716 0.02588639 15.10397339 0.02688599 C18.70596654 0.03071058 22.30791959 0.04054035 25.90989685 0.05158997 C29.58298703 0.06180536 33.25608368 0.06638388 36.92918396 0.07142639 C44.14079081 0.08216268 51.35236459 0.09923838 58.56394958 0.12025452 C58.23394958 1.44025452 57.90394958 2.76025452 57.56394958 4.12025452 C57.56394958 3.46025452 57.56394958 2.80025452 57.56394958 2.12025452 C38.09394958 2.12025452 18.62394958 2.12025452 -1.43605042 2.12025452 C-2.09605042 5.42025452 -2.75605042 8.72025452 -3.43605042 12.12025452 C-4.49018083 7.90373284 -4.23212696 5.33946018 -3.43605042 1.12025452 C-2.43605042 0.12025452 -2.43605042 0.12025452 0 0 Z " fill="#ACACAC" transform="translate(285.43605041503906,39.87974548339844)"/>
<path d="M0 0 C5.11149836 0.30375707 9.61888243 0.65864108 14.3125 2.8125 C15.529375 3.204375 16.74625 3.59625 18 4 C18.75492233 3.37385803 19.50984467 2.74771606 20.28764343 2.1026001 C23.77183217 -0.59831897 25.71546406 -0.48514768 30.08520508 -0.45410156 C30.77843872 -0.45468567 31.47167236 -0.45526978 32.18591309 -0.45587158 C34.46430536 -0.45309746 36.74136918 -0.42204032 39.01953125 -0.390625 C40.60421535 -0.38316015 42.1889087 -0.37746837 43.77360535 -0.37347412 C47.93474022 -0.35823683 52.09531232 -0.31897208 56.25622559 -0.2746582 C60.50602608 -0.233664 64.75591794 -0.21545429 69.00585938 -0.1953125 C77.33749719 -0.15247541 85.66867849 -0.08424787 94 0 C94 0.33 94 0.66 94 1 C93.15919388 1.00808685 92.31838776 1.01617371 91.45210266 1.02450562 C83.52152766 1.10250282 75.59112124 1.18980903 67.66076374 1.28752708 C63.58385421 1.33743569 59.5069699 1.38376611 55.42993164 1.421875 C51.49407626 1.45879662 47.55843475 1.50517505 43.62276268 1.55806351 C42.1225377 1.57657097 40.62226693 1.59169237 39.12197304 1.60334396 C37.01769823 1.62026923 34.91390933 1.6493183 32.80981445 1.68115234 C31.61290482 1.69447601 30.41599518 1.70779968 29.18281555 1.7215271 C26.00085819 1.99992491 23.8134527 2.50644327 21 4 C20.01 5.485 20.01 5.485 19 7 C14.80530429 6.40075776 10.99000166 5.42500059 7 4 C7 3.34 7 2.68 7 2 C4.69 1.67 2.38 1.34 0 1 C0 0.67 0 0.34 0 0 Z " fill="#808080" transform="translate(252,31)"/>
<path d="M0 0 C9.9 0 19.8 0 30 0 C30 0.99 30 1.98 30 3 C29.01 3.33 28.02 3.66 27 4 C27 3.34 27 2.68 27 2 C11.2645198 0.55503439 11.2645198 0.55503439 -2.8828125 5.515625 C-5.3309225 8.07493643 -7.13788995 10.99388085 -9 14 C-9.66 14 -10.32 14 -11 14 C-9.53417985 10.57719483 -7.61937745 8.43519517 -4.9375 5.875 C-2.08428067 3.22095 -2.08428067 3.22095 0 0 Z " fill="#ACACAC" transform="translate(181,40)"/>
<path d="M0 0 C2.88889251 8.66667752 2.5549759 17.58273449 -1 26 C-4.63820363 31.36915514 -9.19895021 36.03202104 -15 39 C-15.99 38.67 -16.98 38.34 -18 38 C-17.34 38 -16.68 38 -16 38 C-16 37.34 -16 36.68 -16 36 C-14.171875 34.703125 -14.171875 34.703125 -11.75 33.25 C-6.14285687 29.63220435 -3.01756828 25.36577577 -1 19 C-0.78884246 16.09829834 -0.85614685 13.2190262 -0.9375 10.3125 C-1.11960432 2.23920863 -1.11960432 2.23920863 0 0 Z " fill="#BABABA" transform="translate(378,110)"/>
<path d="M0 0 C0.33 0 0.66 0 1 0 C1.09289153 5.29481709 0.76541303 9.64210878 0 15 C6.6 15 13.2 15 20 15 C20.33 14.34 20.66 13.68 21 13 C21 14.32 21 15.64 21 17 C13.41 17 5.82 17 -2 17 C-1.0625 4.8125 -1.0625 4.8125 0 0 Z " fill="#B4B4B4" transform="translate(120,110)"/>
<path d="M0 0 C1.5 1.375 1.5 1.375 3 3 C3 3.66 3 4.32 3 5 C-6.24 5 -15.48 5 -25 5 C-25 4.01 -25 3.02 -25 2 C-16.75 2 -8.5 2 0 2 C0 1.34 0 0.68 0 0 Z " fill="#B2B2B2" transform="translate(195,122)"/>
<path d="M0 0 C0.66 0 1.32 0 2 0 C2 0.66 2 1.32 2 2 C9.92 2 17.84 2 26 2 C26.33 1.34 26.66 0.68 27 0 C27.33 1.32 27.66 2.64 28 4 C19.42 4 10.84 4 2 4 C1.34 2.68 0.68 1.36 0 0 Z " fill="#B3B3B3" transform="translate(243,123)"/>
<path d="M0 0 C0.33 0.99 0.66 1.98 1 3 C0.01 3.33 -0.98 3.66 -2 4 C-2.268125 4.556875 -2.53625 5.11375 -2.8125 5.6875 C-4.532843 9.03764163 -7.08575288 11.62425507 -10 14 C-10.66 14 -11.32 14 -12 14 C-12.268125 14.598125 -12.53625 15.19625 -12.8125 15.8125 C-13.98493467 17.97224808 -15.19369282 19.35790256 -17 21 C-17.99 20.67 -18.98 20.34 -20 20 C-13.4 13.4 -6.8 6.8 0 0 Z " fill="#414141" transform="translate(201,50)"/>
<path d="M0 0 C3.86097306 1.28699102 3.96775835 2.53766238 6 6 C7.932668 8.39353499 9.95429514 10.70271978 12 13 C7.70621187 11.07712966 5.22846299 8.37521131 2 5 C1.48050781 5.63808594 0.96101563 6.27617187 0.42578125 6.93359375 C-0.27160156 7.75988281 -0.96898437 8.58617187 -1.6875 9.4375 C-2.37199219 10.26121094 -3.05648438 11.08492187 -3.76171875 11.93359375 C-6.24022612 14.22177944 -7.69136813 14.68130516 -11 15 C-10.2575 14.443125 -9.515 13.88625 -8.75 13.3125 C-4.07616174 9.38222692 -1.64648407 5.89990124 0 0 Z " fill="#B9B9B9" transform="translate(325,133)"/>
<path d="M0 0 C5.11149836 0.30375707 9.61888243 0.65864108 14.3125 2.8125 C15.529375 3.204375 16.74625 3.59625 18 4 C21.02863914 2.36318104 21.02863914 2.36318104 23 0 C23.66 0.33 24.32 0.66 25 1 C24.195625 1.61875 23.39125 2.2375 22.5625 2.875 C19.96125481 4.74164041 19.96125481 4.74164041 19 7 C14.80530429 6.40075776 10.99000166 5.42500059 7 4 C7 3.34 7 2.68 7 2 C4.69 1.67 2.38 1.34 0 1 C0 0.67 0 0.34 0 0 Z " fill="#C4C4C4" transform="translate(252,31)"/>
<path d="M0 0 C0 0.33 0 0.66 0 1 C-4.455 1.495 -4.455 1.495 -9 2 C-9.33 2.99 -9.66 3.98 -10 5 C-13.44444444 8 -13.44444444 8 -16 8 C-16 10.31 -16 12.62 -16 15 C-16.33 15 -16.66 15 -17 15 C-17.50717202 10.18186579 -17.56136987 7.02671166 -14.6875 3 C-10.56743996 -1.37818429 -5.59579471 -0.6272866 0 0 Z " fill="#B2B2B2" transform="translate(358,105)"/>
<path d="M0 0 C4.75 0.875 4.75 0.875 7 2 C9.71262116 2.2322646 12.40773126 2.41936235 15.125 2.5625 C16.25615234 2.62727539 16.25615234 2.62727539 17.41015625 2.69335938 C19.27321888 2.7994832 21.13658524 2.90025001 23 3 C23 3.33 23 3.66 23 4 C16.17137361 4.94452029 9.53511092 5.66850363 3 3 C1.25 1.421875 1.25 1.421875 0 0 Z " fill="#C7C7C7" transform="translate(337,146)"/>
<path d="M0 0 C0.73046875 1.73828125 0.73046875 1.73828125 1 4 C-0.51171875 6.10546875 -0.51171875 6.10546875 -2.6875 8.1875 C-3.74517578 9.22970703 -3.74517578 9.22970703 -4.82421875 10.29296875 C-6.97612297 11.98126703 -8.33004812 12.59619238 -11 13 C-10.67 12.01 -10.34 11.02 -10 10 C-9.34 10 -8.68 10 -8 10 C-6.56418526 8.38542921 -5.19855217 6.70780925 -3.875 5 C-3.15054688 4.071875 -2.42609375 3.14375 -1.6796875 2.1875 C-1.12539062 1.465625 -0.57109375 0.74375 0 0 Z " fill="#CFCFCF" transform="translate(159,64)"/>
<path d="M0 0 C0 0.99 0 1.98 0 3 C-3.65079826 4.61064629 -7.0507432 5.44894091 -11 6 C-11 7.65 -11 9.3 -11 11 C-11.66 11 -12.32 11 -13 11 C-13 9.02 -13 7.04 -13 5 C-12.45730469 4.80664062 -11.91460937 4.61328125 -11.35546875 4.4140625 C-10.64003906 4.15367188 -9.92460937 3.89328125 -9.1875 3.625 C-8.47980469 3.36976562 -7.77210938 3.11453125 -7.04296875 2.8515625 C-0.20183486 0 -0.20183486 0 0 0 Z " fill="#707070" transform="translate(264,87)"/>
<path d="M0 0 C0 4.31618166 -2.13270348 5.92789659 -5 9 C-5.66 9 -6.32 9 -7 9 C-5.44499019 5.18315774 -2.96404505 2.80804268 0 0 Z " fill="#C1C1C1" transform="translate(177,45)"/>
<path d="M0 0 C0.33 0 0.66 0 1 0 C1 2.31 1 4.62 1 7 C1.66 7.33 2.32 7.66 3 8 C2.01 9.485 2.01 9.485 1 11 C0.34 11 -0.32 11 -1 11 C-0.67 7.37 -0.34 3.74 0 0 Z " fill="#5D5D5D" transform="translate(150,64)"/>
<path d="M0 0 C0.66 0.33 1.32 0.66 2 1 C-0.3125 3.5 -0.3125 3.5 -3 6 C-3.99 6 -4.98 6 -6 6 C-4.98545548 3.4636387 -4.3146444 2.20648539 -2 0.6875 C-1.34 0.460625 -0.68 0.23375 0 0 Z " fill="#C8C8C8" transform="translate(74,42)"/>
<path d="M0 0 C3.875 1.75 3.875 1.75 5 4 C2.69 4.33 0.38 4.66 -2 5 C-1.34 3.35 -0.68 1.7 0 0 Z " fill="#B6B6B6" transform="translate(59,97)"/>
<path d="M0 0 C3.8063457 0.67170806 7.35206816 1.72746564 11 3 C11 3.33 11 3.66 11 4 C3.49230769 3.38461538 3.49230769 3.38461538 1 1.4375 C0.67 0.963125 0.34 0.48875 0 0 Z " fill="#B2B2B2" transform="translate(337,146)"/>
</svg>
